<?xml version="1.0" encoding="utf-8" ?>
<svg xmlns="http://www.w3.org/2000/svg" viewBox="0 0 1024 1024">
<path fill="currentColor" d="M502.105 257.539C510.39 229.968 520.837 206.475 545.806 189.985C563.238 178.334 584.648 174.246 605.147 178.654C629.563 183.795 644.417 196.566 657.799 217.032C667.551 221.023 688.255 225.097 695.782 230.032C697.281 231.015 698.27 232.148 698.478 233.978C699.526 243.205 674.237 253.015 668.968 265.964C665.016 275.677 666.138 287.866 665.751 298.188C664.392 334.41 656.601 367.353 634.875 396.987C611.155 429.34 571.699 445.345 533.222 451.25L576.675 509.097L619.092 509.414C629.19 509.396 639.652 508.824 649.71 509.675C650.518 510.221 651.353 510.776 652.08 511.429C654.181 513.319 655.357 516.905 655.348 519.668C655.34 522.059 654.496 524.365 652.761 526.041C651.135 527.612 649.341 528.461 647.097 528.679C638.039 529.559 628.357 528.914 619.234 528.931L564.197 529.082L473.974 529.17C449.56 529.469 425.144 529.445 400.732 529.098C400.464 535.69 401.219 542.092 401.311 548.658L401.499 587L401.494 735.849L401.544 778.752C401.561 786.243 402.055 794.062 401.371 801.506C401.123 804.204 400.465 806.549 398.616 808.598C396.797 810.613 394.246 811.954 391.512 812.063C388.984 812.163 386.564 810.904 384.85 809.099C383.041 807.195 382.217 804.596 382 802.023C381.336 794.138 382.164 785.519 382.18 777.547L382.301 718.026L382.438 530.067C379.322 529.805 375.935 529.667 373.097 528.234C369.092 526.212 367.943 522.481 366.602 518.538C367.374 516.246 368.184 513.471 369.931 511.707C371.186 510.439 372.538 509.952 374.294 509.783C377.979 509.427 381.88 509.739 385.587 509.77L406.178 509.794C434.292 509.806 462.56 510.508 490.647 509.57C488.273 503.344 484.171 497.325 480.848 491.548C473.259 478.604 465.559 465.725 457.749 452.913C444.572 452.074 431.502 449.953 418.502 447.709C408.94 456.397 397.692 463.963 387.448 471.885C376.662 480.228 366.211 489.397 354.927 497.031C350.916 499.744 346.722 502.336 342.172 504.039C332.245 507.641 323.445 506.559 313.321 504.354C304.009 502.757 293.091 498.533 285.641 492.6C283.395 490.811 280.949 488.208 280.855 485.148C280.802 483.381 281.113 482.313 282.281 480.98C287.319 475.229 295.817 469.817 301.966 464.988L343.597 432.244C351.618 426.007 360.722 419.961 367.962 412.864L368.543 412.287C357.593 412.434 336.009 413.549 326.177 411.812C325.684 411.388 325.198 410.954 324.72 410.512C323.282 409.156 322.47 407.868 322.511 405.821C322.558 403.469 324.026 401.397 325.65 399.812C328.798 396.741 333.008 394.355 336.483 391.582L364.467 368.901L456.228 294.687L486.324 270.336C491.574 266.109 497.144 262.099 502.105 257.539ZM399.314 412.99C379.16 429.078 358.852 444.971 338.392 460.666C329.11 467.85 318.951 476.87 309.198 483.137C316.879 485.98 326.397 489.511 334.623 486.685C342.749 483.506 349.464 477.331 356.276 472L392.061 444.286C399.027 438.905 406.388 432.103 414.253 428.204C429.939 429.843 445.331 433.297 461.116 434.738C507.636 438.983 564.024 433.735 601.537 403.384C627.804 382.132 641.881 350.818 645.163 317.563C645.895 310.154 646.483 302.659 646.782 295.219C647.346 281.158 646.381 265.697 653.911 253.179C657.173 247.756 661.669 243.755 666.337 239.578L665.658 239.275C659.471 236.549 651.399 235.363 646.009 231.307C641.187 227.678 638.511 221.265 634.57 216.726C623.473 203.985 607.562 196.453 590.674 195.948C588.051 195.864 584.843 195.651 582.265 196.166C564.075 198.823 549.163 207.039 538.102 222.036C528.579 234.946 522.748 253.22 519.331 268.856C537.99 270.082 557.436 277.251 570.042 291.564C581.499 304.571 586.722 318.247 585.525 335.632C584.358 352.599 574.883 366.439 562.325 377.315C530.049 405.269 482.195 411.996 440.862 412.899C427.063 413.201 413.077 412.269 399.314 412.99ZM424.125 394.79C462.82 393.683 504.037 392.987 537.94 371.899C544.098 368.069 550.362 363.655 555.333 358.33C562.818 350.312 567.154 339.901 566.636 328.872C566.125 317.966 560.983 308.5 552.889 301.314C539.212 289.172 522.368 286.842 504.789 287.734C499.195 288.783 494.157 290.063 489.287 293.11C481.387 298.052 474.102 304.808 466.847 310.67L429.503 340.595L385.901 375.816C378.09 382.057 369.425 387.933 362.236 394.835C382.865 394.995 403.495 394.979 424.125 394.79ZM480.628 454.948C486 464.933 492.297 474.572 498.151 484.288C502.756 491.93 507.149 500.31 512.514 507.426C513.226 508.371 513.817 509.083 514.985 509.463C516.44 509.936 518.121 509.824 519.624 509.733C524.892 509.704 546.627 510.885 550.044 509.149C550.465 506.69 548.165 503.516 546.775 501.579C542.849 496.104 512.475 454.559 511.513 454.31C501.28 455.202 490.894 454.961 480.628 454.948Z"/>
<path fill="currentColor" d="M599.687 227.696C607.997 225.514 616.491 230.526 618.6 238.854C620.709 247.182 615.623 255.632 607.276 257.668C599.033 259.678 590.71 254.668 588.628 246.443C586.545 238.218 591.481 229.851 599.687 227.696Z"/>
<path fill="currentColor" d="M440.085 583.688C464.391 582.882 488.886 584.051 513.221 583.817C545.687 583.466 578.156 583.45 610.623 583.772C619.308 583.864 628.056 583.212 636.725 583.53C639.559 583.634 642.435 583.945 645.072 585.058C648.016 586.299 650.089 588.766 651.17 591.738C652.922 596.557 652.692 603.722 650.279 608.293C648.558 611.553 646.313 612.439 642.912 613.442C600.153 614.612 556.424 613.665 513.563 613.629L463.647 613.546C455.949 613.538 447.993 614.198 440.338 613.597C437.567 613.379 434.87 612.72 432.639 610.986C429.785 608.767 428.482 605.392 428.056 601.896C427.479 597.156 427.822 591.846 430.947 588.011C433.353 585.06 436.382 584.008 440.085 583.688Z"/>
<path fill="currentColor" d="M437.348 655.12C447.17 654.556 457.265 655.001 467.121 655.001L523.066 655.002L598.317 655.012C611.275 655.012 624.336 654.66 637.281 655.05C641.15 655.167 646.297 655.3 648.963 658.374C653.17 663.223 651.672 672.414 651.414 678.409C650.889 679.127 650.328 679.819 649.734 680.482C647.032 683.54 644.589 684.244 640.624 684.535C630.441 685.019 620.101 684.694 609.896 684.762L540.963 684.929L482.741 684.976C469.377 685.021 456.08 685.39 442.711 684.761C439.906 684.629 436.914 684.53 434.377 683.198C431.732 681.81 430.055 679.549 429.257 676.69C427.832 671.586 427.281 664.473 430.185 659.846C431.956 657.025 434.216 655.928 437.348 655.12Z"/>
<path fill="currentColor" d="M438.187 725.609C453.126 725.351 468.063 725.776 483 725.825L555.08 725.737L613.48 725.832C622.136 725.827 630.915 725.253 639.55 725.563C641.334 725.627 643.2 725.908 644.879 726.533C647.749 727.601 649.914 729.739 651.025 732.592C652.564 736.546 652.934 745.313 650.95 749.158C649.258 752.436 645.946 753.912 642.642 755.046C633.203 755.95 623.084 755.315 613.564 755.344L555.33 755.453L478.48 755.621C466.494 755.666 454.218 756.367 442.276 755.849C440.267 755.762 438.259 755.462 436.348 754.82C433.302 753.796 430.49 752.031 429.228 748.953C427.777 745.412 428.293 734.233 429.988 731.068C431.768 727.745 434.75 726.581 438.187 725.609Z"/>
</svg>
