<?xml version="1.0" encoding="utf-8" ?>
<svg xmlns="http://www.w3.org/2000/svg" viewBox="0 0 1024 1024">
	<path fill="currentColor" d="M596.778 163.74C603.863 163.606 611.191 164.253 618.171 165.453C644.896 170.048 669.623 184.888 684.231 208.11C688.739 215.275 691.864 224.004 699.084 228.936C710.167 236.506 746.048 247.611 751.649 256.224C752.352 257.305 752.69 258.489 752.31 259.763C751.647 261.983 749.573 263.653 747.76 264.933C743.683 267.809 738.835 269.883 734.35 272.047C723.767 277.153 712.419 281.816 702.604 288.328C699.054 290.683 695.541 293.222 694.242 297.44C691.849 305.217 692.312 313.94 692.045 322.002C691.661 333.599 691.538 345.238 690.855 356.821C689.668 376.942 686.705 396.068 682.78 415.797C689.196 418.458 696.377 420.173 703.016 422.318C714.42 426.056 725.788 429.899 737.121 433.846C741.714 435.412 747.196 436.514 751.516 438.597C753.857 439.725 757.727 443.036 759.32 445.093C763.57 450.581 766.994 457.205 770.524 463.208L788.692 494.156L802.882 518.144C806.115 523.581 809.865 529.188 812.191 535.073C813.485 538.346 814.638 542.706 812.965 546.067C810.033 551.956 768.125 565.809 759.589 569.087C760.469 599.327 759.905 629.734 759.924 659.994C759.939 682.068 760.84 704.489 759.819 726.519C759.673 729.669 759.556 734.776 758.142 737.641C756.416 741.137 750.746 743.362 747.352 744.912C733.588 751.199 719.154 756.023 705.133 761.72C674.214 774.531 643.229 787.179 612.178 799.666L559.999 820.986C546.628 826.536 532.618 833.338 518.476 836.624C512.123 838.1 507.247 836.788 501.348 834.581C447.015 812.522 392.521 790.861 337.871 769.6L297.141 753.414C288.883 750.139 280.47 747.054 272.392 743.362C270.553 742.522 268.816 741.49 267.402 740.026C264.962 737.498 264.665 734.304 264.342 730.962C263.707 724.374 264.054 717.53 264.072 710.908L264.089 679.099L263.987 569.26C249.387 564.007 231.406 558.33 217.867 551.275C214.873 549.715 211.321 547.86 210.362 544.379C209.447 541.055 210.834 537.607 212.188 534.605C216.27 525.555 222.38 517.047 227.304 508.399C239.865 486.336 252.73 464.454 264.599 442.006C270.849 438.52 278.273 436.606 285.043 434.341C296.62 430.391 308.176 426.378 319.71 422.301C326.997 419.765 335.122 417.583 341.926 413.969C351.634 408.813 363.715 393.711 371.675 385.306C378.98 377.555 386.387 369.901 393.893 362.345C413.747 342.409 434.499 323.282 453.801 302.806C458.941 297.354 464.11 291.711 468.255 285.454C484.871 260.371 482.992 234.772 505.414 208.585C530.421 179.378 558.909 166.575 596.778 163.74ZM451.255 333.114C481.619 326.785 520.141 327.215 546.864 344.743C559.106 352.773 566.886 365.156 569.761 379.431C573.455 397.777 568.137 416.127 557.895 431.439C530.88 471.824 486.065 486.4 442.22 500.638C448.239 503.6 454.767 505.254 460.828 508.074C468.418 510.319 475.93 513.665 483.3 516.557C493.289 520.477 503.476 524.195 513.22 528.698C523.018 523.906 533.359 519.996 543.509 516.003C556.932 510.723 570.392 505.479 583.906 500.437C594.563 496.461 610.956 492.318 620.004 485.823C637.382 473.348 652.796 446.162 659.658 426.132C666.42 406.39 669.285 384.732 670.942 364.013C671.755 352.837 672.404 341.65 672.889 330.455C673.406 317.337 670.945 300.658 676.794 288.603C681.816 278.252 692.989 271.11 702.967 266.193C707.484 263.998 712.027 261.858 716.596 259.776C705.323 255.322 692.871 251.123 683.68 242.908C676.307 236.319 672.844 226.983 667.328 219.021C651.991 196.885 624.34 180.611 596.814 183.209C570.414 184.771 543.269 195.255 525.499 215.373C505.317 238.221 504.039 259.9 490.971 284.906C483.676 298.535 474.361 310.984 463.343 321.829C459.417 325.7 455.198 329.262 451.255 333.114ZM744.022 458.022C721.738 473.584 693.982 481.09 668.665 490.412L561.337 530.355C550.571 534.464 539.292 537.758 528.716 542.246C534.287 551.272 571.79 613.484 575.579 616.513C618.857 599.776 662.293 583.448 705.88 567.53C733.972 557.064 762.045 545.537 790.692 536.695C785.155 527.206 748.177 461.136 744.022 458.022ZM327.839 459.635C343.167 464.57 358.233 470.683 373.374 476.183C382.555 479.518 392.294 482.2 401.266 485.993C404.756 487.238 408.288 488.684 411.899 489.513C453.351 474.365 492.657 469.071 526.499 437.224C534.294 429.888 541.911 420.971 546.405 411.173C551.114 400.906 553.131 388.733 549.103 377.909C545.341 367.798 536.923 360.748 527.27 356.467C513.936 350.553 497.184 348.089 482.68 349.286C466.61 350.06 450.739 352.029 435.837 358.504C411.162 369.225 391.057 391.916 372.689 410.941C363.349 420.518 354.135 430.216 345.047 440.032C339.187 446.456 333.45 452.992 327.839 459.635ZM657.499 473.536C668.423 469.822 679.131 465.474 689.96 461.492C700.485 457.739 712.003 454.497 721.959 449.436C712.944 446.21 703.891 443.092 694.802 440.081C689.095 438.238 682.958 436.785 677.437 434.487C672.271 449.149 665.964 460.626 657.499 473.536ZM740.427 726.661C739.599 721.608 740.061 716.117 740.089 710.999L740.205 684.397L740.049 576.446C701.929 590.243 663.917 604.336 626.017 618.724C616.775 622.196 607.5 625.554 598.302 629.143C591.232 631.902 584.061 635.125 576.776 637.222C573.721 638.102 570.402 639.009 567.359 637.623C565.17 636.626 563.446 634.728 562.009 632.851C557.225 626.601 553.428 619.272 549.373 612.519L530.003 580.912C527.783 577.308 524.846 570.843 521.511 568.43L521.272 733.452L521.273 790.204C521.265 798.433 521.572 806.703 521.307 814.924L720.621 734.668L740.427 726.661ZM305.348 451.109C306.496 451.592 307.645 452.057 308.747 452.64C310.368 450.674 314.214 447.024 314.706 444.635L314.165 444.518C309.994 445.943 305.509 447.161 301.545 449.079C302.23 450.019 304.239 450.616 305.348 451.109ZM283.558 576.499L283.496 726.648C289.544 729.125 295.575 731.743 301.7 734.019L462.222 797.406C475.537 802.656 488.746 808.292 502.094 813.424C501.647 805.58 502.085 797.64 502.088 789.779L502.087 741.439L502.088 601.924C502.107 598.026 502.916 570.383 501.366 568.881C492.637 582.266 484.195 596.04 475.981 609.749C471.497 617.232 467.412 625.245 462.242 632.266C460.756 634.284 458.721 637.332 456.146 637.904C452.318 638.754 447.985 637.301 444.346 636.172C423.487 629.7 403.306 620.768 382.939 612.898C349.996 600.267 316.865 588.133 283.558 576.499ZM279.139 457.328C263.941 483.773 248.971 510.517 233.201 536.617C241.462 539.922 249.957 542.733 258.313 545.794L307.698 563.949L449.653 616.633C463.656 591.197 479.507 566.528 494.853 541.875C461.62 528.819 427.89 516.449 394.286 504.376L347.712 487.883C326.568 480.408 296.222 471.424 279.139 457.328Z"/>
	<path fill="currentColor" d="M612.062 231.18C623.093 229.119 633.693 236.431 635.685 247.474C637.678 258.517 630.301 269.072 619.246 270.997C608.286 272.905 597.842 265.606 595.867 254.658C593.892 243.711 601.127 233.222 612.062 231.18Z"/>
</svg>
