<?xml version="1.0" encoding="utf-8" ?>
<svg xmlns="http://www.w3.org/2000/svg" viewBox="0 0 1024 1024">
	<path fill="currentColor" d="M631.04 128.233C637.433 126.775 646.035 127.801 652.579 128.294C689.974 131.113 717.503 146.077 743.057 172.857C748.444 178.502 757.677 192.805 762.611 196.179C767.798 199.726 774.266 202.263 779.972 204.949C795.773 212.388 812.237 218.895 827.733 226.901C828.412 228.058 829.247 229.304 829.653 230.586C830.335 232.734 829.108 234.595 827.695 236.083C824.91 239.016 820.706 241.219 817.324 243.43C807.541 249.822 791.108 259.007 783.615 267.235C778.48 272.873 775.015 280.072 773.236 287.45C768.195 308.355 770.088 336.18 770.214 358.036C770.431 395.447 760.294 441.978 743.241 475.445C713.358 534.091 662.842 576.936 601.452 599.769C591.832 603.347 581.903 606.588 571.98 609.207C565.367 610.952 558.519 612.149 552.031 614.304L551.426 614.511C559.143 624.872 568.347 634.644 576.681 644.553L621.036 697.618C632.426 697.114 644.028 697.64 655.444 697.579C665.879 697.523 676.982 696.662 687.331 697.842C689.629 698.104 691.112 698.561 693.012 699.878C696.294 702.153 698.599 705.235 699.237 709.232C699.84 712.961 698.872 716.773 696.563 719.763C693.718 723.393 689.181 725.002 684.706 725.44C679.898 725.91 674.869 725.636 670.035 725.638L644.125 725.633L560.482 725.53L460.125 725.486L427.828 725.508C422.043 725.517 416.059 725.807 410.295 725.4C407.117 725.175 403.917 723.555 401.539 721.468C398.651 718.933 396.835 715.363 396.741 711.499C396.656 708.059 397.959 704.837 400.333 702.359C402.603 699.99 405.559 698.574 408.756 697.958C415.826 696.596 424.059 697.629 431.254 697.702C447.053 697.862 463.25 698.208 479.035 697.527C471.512 685.035 464.16 672.441 456.982 659.747C455.145 655.619 452.228 651.53 449.91 647.629C444.19 638.002 438.19 628.441 432.99 618.526C422.026 616.755 410.749 616.337 399.705 614.67C392.873 613.651 386.06 612.509 379.268 611.244C370.774 609.58 362.581 607.126 353.853 607.586C334.724 621.766 315.735 636.133 296.887 650.685C281.497 662.723 263.774 679.651 246.197 687.415C233.886 692.853 221.207 694.309 207.858 693.391C184.941 691.815 160.316 679.906 145.25 662.437C141.722 658.346 139.124 653.641 139.645 648.073C139.952 644.797 141.944 642.542 144.185 640.28C148.682 635.743 154.115 631.851 159.103 627.847L181.686 609.54C213.555 583.777 246.202 558.876 277.828 532.835C249.539 532.308 221.244 532.777 192.96 532.108C192.564 531.832 192.171 531.551 191.78 531.266C189.71 529.746 187.333 527.86 187.047 525.115C186.85 523.227 187.672 521.631 188.774 520.16C193.662 513.635 210.633 500.63 217.754 494.564C274.24 445.895 331.175 397.749 388.552 350.134L453.343 296.807C465.472 286.768 478.363 277.569 488.855 265.715C499.725 253.434 504.17 237.564 510.454 222.766C517.609 205.916 526.254 190.182 538.28 176.253C561.966 148.82 594.641 130.889 631.04 128.233ZM518.836 277.051C550.046 276.79 580.505 287.416 602.948 309.584C623.872 330.253 636.983 360.618 637.096 390.12C637.215 420.838 622.775 447.466 601.474 468.682C565.269 504.741 511.896 521.719 462.511 529.071C450.981 530.788 439.025 532.388 427.364 532.747C402.886 533.5 378.2 532.769 353.707 532.72C343.53 532.7 332.938 532.16 322.807 533.035C314.788 538.54 307.163 544.815 299.459 550.758C283.42 563.127 267.524 575.682 251.776 588.42C226.074 609.113 199.983 629.31 174.608 650.409C179.213 654.169 184.093 657.58 189.206 660.615C201.498 666.981 215.444 668.539 228.742 664.31C233.759 662.714 238.621 660.2 243.009 657.312C253.683 650.287 263.407 641.451 273.456 633.557C289.996 620.617 306.664 607.842 323.459 595.235C330.676 589.748 338.237 581.882 347.254 579.611C360.826 576.194 375.265 581.598 388.656 583.858C400.43 585.846 412.403 587.697 424.277 588.943C514.453 598.402 609.876 586.545 676.899 519.868C693.509 503.593 707.417 484.773 718.1 464.117C727.027 446.712 733.385 428.105 736.977 408.876C743.299 375.648 741.195 342.099 743.338 308.557C744.533 289.847 748.812 269.724 748.526 251.247C748.401 243.125 746.758 234.996 744.197 227.305C735.424 200.952 715.241 178.674 690.479 166.369C672.406 157.388 653.35 154.398 633.358 155.721C602.501 158.867 575.573 174.03 555.984 197.932C542.542 214.333 535.369 234.062 527.83 253.58C524.822 261.368 521.498 269.146 518.836 277.051ZM346.875 505.624C371.905 505.711 397.278 506.664 422.264 505.133C477.248 501.765 543.911 487.114 584.446 446.952C600.151 431.392 609.33 411.656 609.251 389.391C609.173 367.619 599.558 344.575 584.016 329.291C566.254 311.824 542.592 304.062 517.995 304.459C515.874 304.493 513.649 304.454 511.542 304.7C497.833 306.375 485.418 309.785 473.438 316.818C466.418 320.939 459.934 326.869 453.585 331.983C441.413 341.859 429.3 351.808 417.248 361.829C380.823 391.925 344.611 422.279 308.615 452.886L270.153 485.681C262.378 492.34 254.712 499.445 246.506 505.563L346.875 505.624ZM511.062 697.531C519.749 697.677 528.437 697.742 537.125 697.727C552.664 697.384 568.188 697.901 583.714 697.676C575.458 687.303 521.612 621.148 517.739 619.202C517.636 619.151 516.836 619.018 516.648 619.001C515.266 618.874 513.76 619.143 512.381 619.288C497.076 620.669 480.822 620.338 465.449 619.877C467.915 627.284 479.155 643.768 483.718 651.501L500.77 680.527C504.108 686.219 507.264 692.135 511.062 697.531Z"/>
	<path fill="currentColor" d="M655.418 200.295C671.038 198.614 685.074 209.888 686.801 225.504C688.528 241.119 677.295 255.188 661.684 256.96C646.009 258.74 631.87 247.45 630.136 231.77C628.402 216.09 639.733 201.984 655.418 200.295Z"/>
</svg>
