<?xml version="1.0" encoding="utf-8" ?>
<svg xmlns="http://www.w3.org/2000/svg" viewBox="0 0 1024 1024">
	<path fill="currentColor" d="M455.772 159.061C458.444 158.938 461.011 158.932 463.409 160.289C471.434 164.828 484.564 176.846 492.375 183.094C508.76 196.201 525.487 209.025 541.518 222.553L573.47 249.432C578.691 253.762 583.721 258.314 589.23 262.283C595.921 250.734 605.292 240.247 615.685 231.922C632.424 218.514 652.692 210.092 674.409 212.628C694.329 214.955 711.618 226.532 723.164 242.724C726.943 248.023 729.755 254.084 733.802 259.164C733.911 259.301 734.024 259.435 734.135 259.571C744.137 262.848 764.09 268.63 771.038 275.995L771.546 281.633C763.876 293.254 743.903 295.47 733.42 305.007C721.914 315.475 715.803 338.248 709.309 352.466C704.783 362.378 699.651 371.86 693.346 380.766C677.401 403.289 660.749 418.32 635.353 429.694C628.756 432.649 621.538 435.653 614.395 436.881C567.49 450.287 519.002 440.711 473.958 425.177C458.192 430.152 442.509 437.268 427.239 443.65C417.219 447.837 399.599 457.196 389.264 457.578C377.879 457.998 360.957 440.245 352.872 432.836C346.803 427.274 342.597 424.494 342.214 415.761C344.249 413.186 345.866 411.132 348.993 409.898C359.129 405.896 370.671 404.337 381.121 401.071C418.749 389.312 455.799 374.899 487.88 351.464C493.069 347.673 498.813 343.807 503.265 339.156C490.52 328.596 478.579 314.402 470.448 300.029C452.307 267.964 446.133 230.743 446.582 194.245C446.686 185.778 446.644 175.611 449.074 167.474C450.289 163.405 452.079 161.099 455.772 159.061ZM542.093 347.632C541.699 349.621 541.396 351.691 540.743 353.612C539.441 354.627 538.095 355.615 536.849 356.695C529.17 356.814 524.756 355.833 518.772 350.923C511.931 357.228 504.017 362.5 496.357 367.75C457.858 393.771 414.868 412.427 369.567 422.772C375.388 428.529 382.211 434.113 388.718 439.08C388.909 439.042 389.101 439.007 389.292 438.965C395.42 437.621 401.629 434.316 407.412 431.88C420.382 426.415 461.256 408.389 472.776 407.455C482.69 406.651 491.927 412.285 501.197 415.012C543.108 427.338 583.209 429.632 624.878 414.478C666.154 396.974 683.004 367.078 699.469 327.862C704.683 315.443 710.333 301.919 720.064 292.322C725.208 287.249 731.976 283.998 738.316 280.699C732.859 278.302 725.773 276.696 721.218 272.832C715.373 267.872 711.827 258.41 707.302 252.101C694.087 233.673 670.305 225.32 648.973 233.574C628.406 241.532 614.239 257.719 602.189 275.519C608.425 281.053 623.287 295.818 624.092 304.146C624.368 306.995 623.126 310.035 621.202 312.101C619.492 313.938 617.15 315.14 614.609 315.093C612.248 315.049 610.424 314.006 608.906 312.24C606.47 309.405 605.2 305.715 602.904 302.793C599.267 298.164 594.655 293.844 590.484 289.702C573.3 272.639 554.527 257.091 535.785 241.776C520.242 229.052 504.616 216.429 488.909 203.908C483.552 199.652 469.856 187.651 464.933 185.405L465.058 186.256C466.09 193.492 465.437 200.86 465.371 208.139C465.33 212.683 465.72 217.265 466.087 221.794C469.515 264.103 486.76 303.478 521.185 329.566C527.997 334.728 538.395 339.743 542.093 347.632Z"/>
	<path fill="currentColor" d="M680.225 260.535C683.581 260.208 686.585 261.097 689.782 261.963C691.371 264.065 693.198 265.816 694.199 268.319C695.62 271.871 695.819 275.745 694.15 279.253C692.038 283.69 688.037 285.779 683.687 287.462C681.024 288.101 677.739 287.746 675.242 286.646C672.33 285.364 670.3 282.825 669.224 279.876C667.81 275.998 668.114 271.223 670.069 267.582C672.387 263.264 675.761 261.802 680.225 260.535Z"/>
<path fill="currentColor" d="M373.811 516.712C396.564 516.417 419.319 516.377 442.072 516.593L565.987 516.632L613.056 516.797C620.018 516.786 639.445 515.643 645.387 517.369C648.779 518.354 650.554 520.97 652.275 523.839C652.342 526.02 652.174 528.224 652.079 530.404C651.377 531.356 650.61 532.259 649.783 533.104C647.99 534.944 646.324 536.098 643.767 536.424C635.587 537.465 626.632 536.811 618.367 536.812L569.821 536.808L404.185 537.021C403.699 549.552 404.026 562.204 404.039 574.75L404.056 732.056L404.102 779.683C404.145 788.515 404.698 797.643 404.097 806.442C403.924 808.969 403.651 811.481 401.717 813.323C399.581 815.356 396.209 815.773 393.397 815.557C389.225 815.236 387.275 813.835 384.563 810.756C383.85 799.86 384.319 788.715 384.323 777.783L384.323 720.134L384.299 536.975C380.508 537.021 376.396 537.376 372.736 536.242C368.188 534.832 366.216 531.396 364.208 527.422C365.345 523.559 366.596 521.26 369.311 518.356L373.811 516.712Z"/>
<path fill="currentColor" d="M442.827 727.776L443.828 727.657C451.844 726.775 460.613 727.448 468.708 727.449L517.532 727.464L595.71 727.47C609.019 727.472 622.535 726.986 635.823 727.536C639.22 727.677 645.536 727.82 648.119 730.053C651.151 732.676 652.018 736.791 652.151 740.615C652.31 745.191 652.405 751.887 648.932 755.321C645.81 758.407 641.304 757.996 637.262 758.006C589.628 757.508 541.904 757.879 494.261 757.98L456.398 758.083C450.099 758.097 442.775 758.821 436.593 757.676C432.764 756.966 430.06 753.62 428.064 750.55C427.94 745.429 427.816 740.346 428.098 735.226C428.818 734.059 429.537 732.859 430.446 731.827C433.781 728.037 438.182 728.209 442.827 727.776Z"/>
<path fill="currentColor" d="M436.403 657.352C441.036 656.71 445.993 657.018 450.672 657.026L474.023 657.041L557.513 657.049L617.229 657.005C623.727 656.987 638.414 656.023 644.234 657.355C647.677 658.144 650.057 661.317 651.898 664.075C651.372 669.69 653.292 676.818 650.914 682.023C649.574 684.956 647.07 686.286 644.214 687.454C607.511 687.87 570.753 687.434 534.045 687.465C500.944 687.492 467.764 688.049 434.677 687.424C431.681 685.515 429.832 684.186 428.66 680.699C426.989 675.727 426.895 667.295 429.403 662.642C430.964 659.746 433.338 658.287 436.403 657.352Z"/>
<path fill="currentColor" d="M440.018 588.133C440.722 588.094 441.426 588.062 442.13 588.037C448.946 587.805 455.899 588.598 462.76 588.563L543.381 588.402L606.17 588.268C617.299 588.227 628.71 587.667 639.814 588.26C642.581 588.407 646.612 588.413 648.602 590.476C653.071 595.107 651.482 605.482 651.438 611.588C649.585 614.517 647.879 615.822 644.927 617.533L638.375 617.528C570.924 617.072 503.471 617.071 436.02 617.524C433.13 616.124 431.143 614.446 428.903 612.195C428.643 611.333 428.414 610.464 428.258 609.577C427.403 604.705 426.766 596.983 429.835 592.812C432.421 589.297 435.972 588.64 440.018 588.133Z"/>
</svg>
