<?xml version="1.0" encoding="utf-8" ?>
<svg xmlns="http://www.w3.org/2000/svg" viewBox="0 0 1024 1024">
	<path fill="currentColor" d="M564.009 246.29C572.827 245.584 581.701 246.219 590.328 248.172C605.347 251.486 621.637 260.3 631.547 272.231C635.637 277.155 638.923 282.942 642.378 288.338C650.631 291.949 682.569 301.894 687.291 305.879C686.731 312.952 651.801 332.298 647.12 342.569C644.182 349.017 645.136 359.203 644.98 366.253C644.676 379.968 644.902 394.063 643.504 407.694C640.682 435.207 629.135 461.02 612.561 482.935C591.718 510.496 562.77 530.707 530.443 542.543C522.686 545.383 514.206 548.198 506.024 549.343C520.467 566.331 533.592 584.638 547.58 602.027C556.491 601.843 589.353 600.417 595.981 603.46C598.619 604.672 600.176 606.608 601.027 609.384C601.916 612.281 601.548 615.418 600.012 618.03C598.5 620.597 595.795 622.735 592.825 623.275C587.532 624.238 580.855 623.524 575.398 623.531L537.615 623.566L458.575 623.559C445.231 623.543 431.716 624.011 418.397 623.413C415.774 623.295 413.506 623.198 411.282 621.665C407.971 619.382 407.148 615.741 406.507 612.039C407.315 609.593 408.121 607.045 409.969 605.159C411.439 603.658 413.284 602.856 415.322 602.45C420.665 601.385 426.805 601.927 432.256 601.949L457.955 601.967C451.939 591.15 445.217 580.687 438.653 570.195C435.587 564.208 431.323 558.408 427.706 552.722C408.174 550.619 389.731 547.676 370.664 542.84L319.742 580.757C310.689 587.45 301.053 596.14 290.773 600.663C282.7 604.267 273.804 605.627 265.023 604.6C254.743 603.408 237.358 595.415 231.206 587.178C229.018 584.249 228.025 580.862 228.571 577.224C228.865 575.27 229.399 573.537 230.772 572.072C240.386 561.815 256.364 551.145 267.9 542.263L321.471 500.365C317.37 500.022 313.103 500.301 308.972 500.217C301.727 500.009 294.484 499.742 287.243 499.414C283.325 499.249 279.144 499.336 275.295 498.562C273.177 498.136 271.483 497.656 270.259 495.809L270.966 495.616L270.611 495.229C275.983 489.632 282.603 485.044 288.645 480.175C296.48 473.761 304.255 467.273 311.969 460.714C346.497 431.532 381.478 402.888 416.897 374.794C425.846 367.833 434.869 360.97 443.966 354.204C452.248 347.991 461.12 341.733 468.291 334.227C477.853 324.218 482.533 310.833 488.866 298.744C492.68 291.532 497.222 284.729 502.421 278.442C518.615 258.944 538.841 248.632 564.009 246.29ZM486.439 343.82C505.967 346.252 525.111 353.267 537.46 369.314C546.541 381.116 549.842 396.33 547.88 410.989C544.966 432.773 530.009 450.304 513.09 463.177C481.039 487.565 433.831 498.263 394.041 499.8C381.845 500.272 364.917 498.836 353.613 500.408C345.123 506.543 337.079 513.345 328.81 519.779C303.663 539.345 278.854 559.41 253.332 578.478C258.776 582.243 264.162 584.608 270.872 584.831C274.915 585.028 277.945 584.183 281.557 582.442C289.601 578.565 297.033 572.525 304.229 567.264L347.564 535.659C354.18 530.86 360.734 525.177 367.878 521.239C427.581 537.043 495.885 541.801 551.204 509.536C583.782 490.535 609.799 460.473 619.588 423.552C624.109 406.504 624.701 388.626 624.939 371.068C625.024 364.743 624.807 358.371 625.281 352.062C626.171 340.2 629.564 328.306 628.571 316.371C627.82 307.51 625.059 298.935 620.499 291.3C613.231 278.897 601.305 271.617 587.535 268.018C579.999 266.048 572.168 266.13 564.447 266.637C544.07 269.308 527.456 279.331 515.013 295.598C507.471 305.458 502.906 316.547 497.048 327.349C493.94 333.08 490.283 338.561 486.439 343.82ZM479.31 553.26C470.705 553.991 462.152 554.124 453.52 554.11C459.559 563.887 465.664 573.637 471.562 583.5C475.248 589.665 478.672 596.174 482.748 602.085L495.25 602.022L520.004 602.011C514.976 595.484 485.659 555.768 481.217 553.315L479.31 553.26ZM319.617 480.447C338.952 479.499 358.291 480.277 377.624 479.829C424.531 477.063 481.21 471.363 514.356 433.83C522.479 424.631 528.939 412.75 528.053 400.138C527.399 390.826 523.055 382.716 515.981 376.684C502.883 365.515 487.899 362.56 471.145 363.657C467.567 364.416 464.305 365.123 461.086 366.96C456.328 369.675 451.81 373.408 447.387 376.645C434.488 386.088 422.146 396.114 409.696 406.13C379.422 430.482 348.791 454.785 319.617 480.447Z"/>
    <path fill="currentColor" d="M580.591 301.774C588.291 299.738 596.191 304.292 598.289 311.975C600.386 319.657 595.896 327.594 588.231 329.753C580.478 331.938 572.43 327.385 570.308 319.614C568.187 311.844 572.804 303.833 580.591 301.774Z"/>
	<path fill="currentColor" d="M776.391 401.554C779.077 401.393 781.393 401.343 783.877 402.516C785.345 403.209 786.507 404.112 787.66 405.244C793.27 410.748 798.517 416.792 803.925 422.511L833.982 453.967L860.859 482.26C865.869 487.495 871.273 492.561 875.991 498.049C877.653 499.982 879.821 502.663 880.448 505.138C881.112 507.756 879.79 511.182 878.266 513.275C874.595 518.316 869.392 522.896 865.047 527.421L836.228 557.244L803.142 591.58C797.362 597.624 791.935 604.281 785.649 609.796C783.816 611.403 782.342 612.07 779.94 612.353C777.224 612.673 774.446 611.985 772.332 610.209C769.738 608.031 768.739 604.76 768.579 601.474C768.475 599.35 768.934 597.136 770.203 595.394C774.422 589.601 783.45 581.443 788.806 575.881C804.046 560.054 819.48 544.452 834.395 528.308C837.725 524.764 840.979 521.133 844.753 518.05C830.681 517.693 816.542 517.943 802.462 517.936L723.041 517.889C713.746 517.841 704.451 517.859 695.156 517.943C689.361 518 683.341 518.418 677.582 517.869C674.567 517.581 671.122 516.761 668.817 514.669C666.864 512.896 666.163 509.759 666.086 507.221C666.006 504.564 666.938 502.061 668.843 500.196C671.071 498.015 674.035 496.946 677.086 496.574C682.651 495.896 688.701 496.381 694.339 496.405L728.227 496.502C767.13 496.356 806.033 496.419 844.935 496.692C835.161 485.942 771.002 419.957 769.262 415.664C768.299 413.288 768.344 410.204 769.343 407.853C770.682 404.699 773.353 402.871 776.391 401.554Z"/>
</svg>
