<?xml version="1.0" encoding="utf-8" ?>
<svg xmlns="http://www.w3.org/2000/svg" viewBox="0 0 1024 1024">
    <path fill="currentColor" d="M452.437 245.72C460.001 245.818 468.091 246.895 475.39 248.81C503.665 256.229 523.598 275.351 536.525 301.237C541.736 311.671 546.102 322.876 553.752 331.826C562.044 341.528 573.76 349.362 583.931 356.964C593.063 363.722 602.06 370.66 610.916 377.775C649.077 408.282 686.843 439.279 724.204 470.759C729.404 475.079 751.165 491.657 753.806 496.168C753.687 496.377 753.608 496.615 753.449 496.797C749.738 501.047 709.466 500.132 702.269 500.159C720.46 514.569 738.74 528.866 757.109 543.048C768.244 551.614 780.676 559.796 790.749 569.558C792.851 571.595 795.63 574.632 796.063 577.603C796.543 580.74 795.73 583.938 793.809 586.464C791.606 589.418 788.454 591.486 785.472 593.572C777.276 599.308 770.119 603.185 760.059 604.472C752.308 605.464 743.844 604.941 736.495 602.118C723.553 597.148 707.747 583.682 696.291 575.187C681.884 564.61 667.58 553.894 653.382 543.038C634.434 547.668 616.346 550.989 596.882 552.665C593.175 556.648 590.433 562.167 587.62 566.819C580.352 578.402 573.718 590.719 565.969 601.943C571.971 601.417 578.206 601.877 584.238 601.847C591.275 601.811 598.698 601.25 605.695 601.972C607.933 602.203 610.46 602.575 612.383 603.813C614.826 605.385 616.641 608.385 617.16 611.214C617.646 613.861 617.035 616.83 615.464 619.025C613.59 621.643 610.624 622.885 607.536 623.401C600.534 624.57 592.079 623.569 584.909 623.511C572.857 623.414 560.792 623.633 548.737 623.626L474.543 623.594C461.278 623.609 447.719 624.197 434.482 623.508C431.47 623.351 429.107 623.021 426.656 621.151C424.261 619.302 422.748 616.536 422.481 613.522C422.227 610.532 423.25 607.575 425.296 605.38C427.337 603.162 430.629 602.298 433.51 601.901C438.264 601.245 443.408 601.659 448.211 601.702C457.722 601.866 467.233 601.895 476.744 601.79C481.571 594.774 487.116 588.158 492.376 581.461C500.763 570.696 509.242 560.003 517.812 549.383C490.197 545.01 457.175 527.238 436.055 509.143C406.882 484.146 384.419 447.023 380.561 408.422C378.686 389.664 380.041 370.809 378.502 352.102C378.258 349.146 377.861 344.538 376.376 341.971C372.228 334.804 349.144 318.777 341.384 312.014C339.503 310.375 337.131 308.327 336.976 305.731C342.166 301.049 372.582 292.964 381.508 288.308C381.653 288.232 381.795 288.153 381.939 288.075C385.759 282.022 389.214 275.831 394.038 270.489C409.148 253.758 430.49 246.805 452.437 245.72ZM766.273 581.135C767.536 580.309 769.075 579.575 769.784 578.194C764.821 573.715 759.214 569.73 753.934 565.622L724.648 542.884L686.118 512.778C680.715 508.572 675.471 504.032 669.917 500.039C653.874 500.079 637.658 500.612 621.653 499.457C579.717 496.43 529.446 483.052 498.922 452.723C485.646 439.532 475.587 421.876 475.538 402.741C475.5 387.848 481.09 374.103 491.62 363.563C504.266 350.906 520.247 346.552 537.409 343.708C533.473 338.276 529.694 332.639 526.553 326.705C523.184 320.34 520.415 313.657 516.839 307.402C505.102 286.87 487.078 271.187 463.217 267.295C457.566 266.373 451.344 266.062 445.643 266.705C432.118 267.956 416.95 274.121 408.147 284.826C397.825 297.377 394.222 312.993 395.896 328.903C396.722 336.757 398.338 344.544 398.842 352.428C399.864 368.404 398.941 384.477 400.383 400.484C403.78 438.166 423.064 471.995 452.402 495.607C495.658 530.421 550.322 537.303 604.002 531.34C618.874 529.738 633.604 527.021 648.068 523.211C650.558 522.565 653.636 521.447 656.22 521.905C657.915 522.205 659.601 523.24 661.013 524.169C665.936 527.411 670.427 531.415 675.216 534.869L721.834 568.753C728.653 573.687 737.3 581.465 745.43 583.839C752.875 586.012 759.588 584.515 766.273 581.135ZM661.531 479.669C675.871 480.063 690.194 480.068 704.537 480.527C669.974 451.367 634.981 422.72 599.568 394.596C590.596 387.539 570.335 370.587 560.849 366.215C554.741 363.4 546.503 363 539.9 363.68C539.866 363.683 539.833 363.693 539.8 363.699C526.581 365.177 512.315 370.591 503.761 381.258C497.974 388.475 495.206 397.027 496.277 406.265C498.135 422.291 510.008 436.261 522.306 445.795C531.432 452.77 541.43 458.524 552.046 462.91C583.173 475.618 628.038 480.855 661.531 479.669ZM504.117 601.942C513.09 601.93 522.443 601.361 531.375 601.92L541.403 601.94C550.953 586.085 561.579 570.393 570.304 554.107C561.004 554.032 551.489 554.246 542.24 553.14L516.686 585.57C512.487 590.973 508.625 596.82 504.117 601.942Z"/>
	<path fill="currentColor" d="M436.804 301.549C444.73 299.956 452.433 305.133 453.952 313.073C455.472 321.013 450.224 328.668 442.27 330.114C434.42 331.542 426.886 326.377 425.386 318.54C423.886 310.703 428.981 303.121 436.804 301.549Z"/>
	<path fill="currentColor" d="M241.966 401.582C245.877 401.416 248.838 401.684 251.965 404.258C253.996 405.93 255.28 408.232 255.452 410.873C255.607 413.185 255.001 415.483 253.728 417.419C248.891 424.747 240.595 431.987 234.471 438.415L202.056 472.354C194.484 480.244 186.588 488.067 179.582 496.464L294.127 496.5L327.53 496.495C333.83 496.493 340.227 496.228 346.513 496.598C348.739 496.729 350.872 496.905 352.833 498.061C356.251 500.076 357.269 503.643 358.244 507.213C357.542 510.024 356.942 512.643 354.829 514.786C352.959 516.683 350.593 517.409 348.013 517.721C341.56 518.501 334.615 518.02 328.107 518.02L292.191 518.021C254.502 518.022 216.757 518.445 179.074 517.932C181.865 520.343 184.382 522.676 186.794 525.477C204.809 544.637 223.532 563.15 241.409 582.412C245.331 586.638 250.804 590.823 253.81 595.662C255.377 598.186 256.053 600.941 255.257 603.858C254.448 606.821 252.35 610.176 249.56 611.622C247.258 612.816 244.321 612.845 241.908 611.956C239.671 611.132 237.493 609 235.776 607.346C231.906 603.617 228.431 599.435 224.702 595.561L197.341 567.303L168.691 537.504C161.38 530.018 153.729 522.72 146.79 514.888C145.815 513.787 145.05 512.641 144.475 511.288C143.274 508.464 143.191 505.718 144.473 502.91C145.197 501.323 146.174 499.888 147.317 498.575C152.63 492.471 158.559 486.844 164.214 481.053C170.577 474.537 176.786 467.783 183.031 461.148C194.788 448.629 206.661 436.221 218.648 423.923C224.828 417.471 230.818 410.451 237.319 404.352C238.714 403.044 240.2 402.275 241.966 401.582Z"/>
</svg>
